<svg xmlns="http://www.w3.org/2000/svg" aria-hidden="true">
  <defs>
    <symbol id="icon-check" viewBox="0 0 32 32">
      <path d="M8 13.333 5.333 16l8 8 13.333-13.333L23.999 8 13.332 18.667l-5.333-5.333z" />
    </symbol>
    <symbol id="icon-user" viewBox="0 0 32 32">
      <path d="M16 0a8 8 0 1 1 0 16 8 8 0 0 1 0-16zm0 20c8.84 0 16 3.58 16 8v4H0v-4c0-4.42 7.16-8 16-8z"/>
    </symbol>
     <symbol id="icon-heart-full" viewBox="0 0 32 32">
      <path stroke-linecap="round" stroke-linejoin="round" stroke-width="2.462" d="M27.787 6.147a7.326 7.326 0 0 0-10.373 0L16.001 7.56l-1.413-1.413a7.333 7.333 0 0 0-10.374 0 7.333 7.333 0 0 0 0 10.374l11.787 11.787 11.787-11.787a7.345 7.345 0 0 0 2.15-5.187 7.33 7.33 0 0 0-2.15-5.187z" />
    </symbol>
    <symbol id="icon-heart" viewBox="0 0 38 32">
      <path stroke-linecap="round" stroke-linejoin="round" stroke-width="2.909" d="M32.839 4.355a8.672 8.672 0 0 0-6.13-2.54 8.664 8.664 0 0 0-6.13 2.54l-1.67 1.67-1.67-1.67a8.669 8.669 0 0 0-12.26 12.26l13.93 13.93 13.93-13.93a8.672 8.672 0 0 0 2.54-6.13 8.664 8.664 0 0 0-2.54-6.13z"/>
    </symbol>
  </defs>
</svg>
